<?xml version="1.0" encoding="UTF-8" standalone="no"?>
<svg
   width="423.33102"
   height="423.33102"
   viewBox="0 0 846.66205 846.66205"
   version="1.1"
   id="svg6"
   sodipodi:docname="Square Cash 2015 Icon.svg"
   inkscape:version="1.1.2 (b8e25be833, 2022-02-05)"
   xmlns:inkscape="http://www.inkscape.org/namespaces/inkscape"
   xmlns:sodipodi="http://sodipodi.sourceforge.net/DTD/sodipodi-0.dtd"
   xmlns="http://www.w3.org/2000/svg"
   xmlns:svg="http://www.w3.org/2000/svg">
  <defs
     id="defs10" />
  <sodipodi:namedview
     id="namedview8"
     pagecolor="#ffffff"
     bordercolor="#666666"
     borderopacity="1.0"
     inkscape:pageshadow="2"
     inkscape:pageopacity="0.0"
     inkscape:pagecheckerboard="0"
     showgrid="false"
     inkscape:zoom="0.449375"
     inkscape:cx="-40.055633"
     inkscape:cy="511.82197"
     inkscape:window-width="1920"
     inkscape:window-height="1017"
     inkscape:window-x="-8"
     inkscape:window-y="-8"
     inkscape:window-maximized="1"
     inkscape:current-layer="svg6" />
  <path
     fill="#28c101"
     d="m 295.18025,0 h 256.2846 c 85.0218,0 127.49037,0 173.24398,14.46099 a 179.89875,179.89875 0 0 1 107.49221,107.47528 c 14.46099,45.75361 14.46099,88.23911 14.46099,173.24398 v 256.30153 c 0,84.98793 0,127.47344 -14.46099,173.22705 A 179.86488,179.86488 0 0 1 724.70883,832.18411 c -45.73668,14.47792 -88.22218,14.47792 -173.24398,14.47792 h -256.2846 c -85.00487,0 -127.49037,0 -173.24398,-14.46099 A 179.79715,179.79715 0 0 1 14.46099,724.72577 C 0,678.97215 0,636.46971 0,551.48178 V 295.18025 C 0,210.17538 0,167.68988 14.46099,121.93627 A 179.83101,179.83101 0 0 1 121.93627,14.46099 C 167.68988,0 210.19232,0 295.18025,0"
     id="path2"
     style="stroke-width:16.9332" />
  <path
     fill="#ffffff"
     d="m 547.02834,267.98547 c -23.31707,-29.37918 -53.62757,-48.6492 -93.67469,-54.67744 v 181.49048 c 69.17229,20.20135 135.75379,49.03866 135.75379,139.34363 0,77.41878 -47.70094,135.26273 -135.75379,141.81589 v 36.64353 h -27.66891 l -14.73192,0.0677 v -37.57485 c -66.5815,-5.57104 -121.83467,-35.74607 -153.3813,-83.22688 l 39.94552,-26.53439 c 30.14117,45.39802 74.18453,64.07538 113.43578,68.25789 l -0.0169,-199.96463 C 343.66016,415.47399 270.88109,388.04214 270.88109,300.09089 c 0,-82.36328 65.10831,-127.72743 140.10563,-132.62114 v -33.40928 h 42.3331 v 34.10354 c 54.64357,5.55411 97.7556,31.46196 129.42076,71.89854 z m -136.07552,-55.7273 c -51.84959,3.48825 -92.4047,32.68116 -92.4047,85.03874 0,53.05184 46.14308,73.98132 92.4047,86.56272 z m 131.79141,323.2725 c 0,-53.66144 -29.48077,-72.15254 -89.39058,-90.71137 v 188.3823 c 57.89475,-5.07997 89.39058,-41.94364 89.39058,-97.67093 z"
     id="path4"
     style="stroke-width:16.9332" />
</svg>
